<?xml version="1.0" encoding="UTF-8"?>
<svg id="rayine" xmlns="http://www.w3.org/2000/svg" xmlns:xlink="http://www.w3.org/1999/xlink" viewBox="0 0 1024 1024">
  <defs>
    <style>
      .cls-1 {
        fill: #3f3f46;
      }

      .cls-1, .cls-2, .cls-3 {
        stroke-width: 0px;
      }

      .cls-2 {
        fill: #71717a;
      }

      .cls-3 {
        fill: #a5b4fc;
      }
    </style>
  </defs>
  <g id="r_leg">
    <path class="cls-1" d="m949.3,851.91v121.45c0,15.27-12.38,27.64-27.64,27.64h-122.51c-7.33,0-14.36-2.91-19.55-8.1l-384.22-384.22,262.61-3.69c18.78,0,28.64-6.04,46.42-9.42l236.79,236.79c5.18,5.18,8.1,12.22,8.1,19.55Z"/>
  </g>
  <path id="r_head" class="cls-2" d="m949.3,316.84c0,142.4-102,260.99-236.93,286.69-17.79,3.38-36.14,5.16-54.91,5.16h-262.07v-208.38h207.85c20.44,0,39.18-7.36,53.69-19.57,18.2-15.3,29.77-38.24,29.77-63.89s-11.57-48.59-29.77-63.89c-14.51-12.22-33.25-19.57-53.69-19.57-.18,0-.35,0-.53.01h0s-207.32-.01-207.32-.01V25h262.07c161.18,0,291.84,130.66,291.84,291.84Z"/>
  <g id="cube_3">
    <rect class="cls-1" x="76.7" y="691.61" width="249.85" height="309.39" rx="26" ry="26"/>
  </g>
  <rect id="cube_2" class="cls-3" x="76.7" y="400.3" width="249.85" height="208.38" rx="26" ry="26"/>
  <g id="cube_1">
    <rect class="cls-1" x="76.7" y="25" width="249.85" height="292.37" rx="26" ry="26"/>
  </g>
</svg>